<mxfile host="app.diagrams.net" agent="Mozilla/5.0 (Macintosh; Intel Mac OS X 10_15_7) AppleWebKit/537.36 (KHTML, like Gecko) Chrome/129.0.0.0 Safari/537.36" version="24.7.17">
  <diagram name="第 1 页" id="hx4WCAdyTVgNXEJozuN2">
    <mxGraphModel dx="854" dy="578" grid="1" gridSize="10" guides="1" tooltips="1" connect="1" arrows="1" fold="1" page="1" pageScale="1" pageWidth="827" pageHeight="1169" math="0" shadow="0">
      <root>
        <mxCell id="0" />
        <mxCell id="1" parent="0" />
        <mxCell id="Ie3UJ3Y90iRiVX0req6u-1" value="" style="endArrow=none;html=1;rounded=0;" edge="1" parent="1" source="Ie3UJ3Y90iRiVX0req6u-3">
          <mxGeometry width="50" height="50" relative="1" as="geometry">
            <mxPoint x="200" y="240" as="sourcePoint" />
            <mxPoint x="480" y="240" as="targetPoint" />
          </mxGeometry>
        </mxCell>
        <mxCell id="Ie3UJ3Y90iRiVX0req6u-2" value="" style="endArrow=none;html=1;rounded=0;" edge="1" parent="1" source="Ie3UJ3Y90iRiVX0req6u-7">
          <mxGeometry width="50" height="50" relative="1" as="geometry">
            <mxPoint x="200" y="270" as="sourcePoint" />
            <mxPoint x="480" y="270" as="targetPoint" />
          </mxGeometry>
        </mxCell>
        <mxCell id="Ie3UJ3Y90iRiVX0req6u-4" value="" style="endArrow=none;html=1;rounded=0;" edge="1" parent="1" target="Ie3UJ3Y90iRiVX0req6u-3">
          <mxGeometry width="50" height="50" relative="1" as="geometry">
            <mxPoint x="200" y="240" as="sourcePoint" />
            <mxPoint x="480" y="240" as="targetPoint" />
          </mxGeometry>
        </mxCell>
        <mxCell id="Ie3UJ3Y90iRiVX0req6u-3" value="P 3.1" style="rounded=0;whiteSpace=wrap;html=1;" vertex="1" parent="1">
          <mxGeometry x="220" y="230" width="50" height="20" as="geometry" />
        </mxCell>
        <mxCell id="Ie3UJ3Y90iRiVX0req6u-5" value="A 3.1 X" style="rounded=0;whiteSpace=wrap;html=1;" vertex="1" parent="1">
          <mxGeometry x="280" y="230" width="50" height="20" as="geometry" />
        </mxCell>
        <mxCell id="Ie3UJ3Y90iRiVX0req6u-8" value="" style="endArrow=none;html=1;rounded=0;" edge="1" parent="1" target="Ie3UJ3Y90iRiVX0req6u-7">
          <mxGeometry width="50" height="50" relative="1" as="geometry">
            <mxPoint x="200" y="270" as="sourcePoint" />
            <mxPoint x="480" y="270" as="targetPoint" />
          </mxGeometry>
        </mxCell>
        <mxCell id="Ie3UJ3Y90iRiVX0req6u-7" value="A 3.1 X" style="rounded=0;whiteSpace=wrap;html=1;" vertex="1" parent="1">
          <mxGeometry x="280" y="260" width="50" height="20" as="geometry" />
        </mxCell>
        <mxCell id="Ie3UJ3Y90iRiVX0req6u-10" value="" style="endArrow=none;html=1;rounded=0;" edge="1" parent="1">
          <mxGeometry width="50" height="50" relative="1" as="geometry">
            <mxPoint x="200" y="329.5" as="sourcePoint" />
            <mxPoint x="480" y="329.5" as="targetPoint" />
          </mxGeometry>
        </mxCell>
        <mxCell id="Ie3UJ3Y90iRiVX0req6u-11" value="" style="endArrow=none;html=1;rounded=0;" edge="1" parent="1">
          <mxGeometry width="50" height="50" relative="1" as="geometry">
            <mxPoint x="200" y="359.5" as="sourcePoint" />
            <mxPoint x="480" y="359.5" as="targetPoint" />
          </mxGeometry>
        </mxCell>
        <mxCell id="Ie3UJ3Y90iRiVX0req6u-6" value="P 3.1" style="rounded=0;whiteSpace=wrap;html=1;" vertex="1" parent="1">
          <mxGeometry x="220" y="260" width="50" height="20" as="geometry" />
        </mxCell>
        <mxCell id="Ie3UJ3Y90iRiVX0req6u-17" value="" style="endArrow=none;html=1;rounded=0;" edge="1" parent="1" source="Ie3UJ3Y90iRiVX0req6u-41">
          <mxGeometry width="50" height="50" relative="1" as="geometry">
            <mxPoint x="200" y="299.5" as="sourcePoint" />
            <mxPoint x="480" y="299.5" as="targetPoint" />
          </mxGeometry>
        </mxCell>
        <mxCell id="Ie3UJ3Y90iRiVX0req6u-18" value="A 3.1 X" style="rounded=0;whiteSpace=wrap;html=1;" vertex="1" parent="1">
          <mxGeometry x="280" y="290" width="50" height="20" as="geometry" />
        </mxCell>
        <mxCell id="Ie3UJ3Y90iRiVX0req6u-19" value="" style="endArrow=none;html=1;rounded=0;" edge="1" parent="1" source="Ie3UJ3Y90iRiVX0req6u-13" target="Ie3UJ3Y90iRiVX0req6u-18">
          <mxGeometry width="50" height="50" relative="1" as="geometry">
            <mxPoint x="200" y="299.5" as="sourcePoint" />
            <mxPoint x="480" y="299.5" as="targetPoint" />
          </mxGeometry>
        </mxCell>
        <mxCell id="Ie3UJ3Y90iRiVX0req6u-21" value="A 4.5 X" style="rounded=0;whiteSpace=wrap;html=1;" vertex="1" parent="1">
          <mxGeometry x="413" y="320" width="50" height="20" as="geometry" />
        </mxCell>
        <mxCell id="Ie3UJ3Y90iRiVX0req6u-22" value="P 4.5" style="rounded=0;whiteSpace=wrap;html=1;" vertex="1" parent="1">
          <mxGeometry x="349" y="320" width="50" height="20" as="geometry" />
        </mxCell>
        <mxCell id="Ie3UJ3Y90iRiVX0req6u-24" value="A 4.5 X" style="rounded=0;whiteSpace=wrap;html=1;" vertex="1" parent="1">
          <mxGeometry x="414" y="350" width="50" height="20" as="geometry" />
        </mxCell>
        <mxCell id="Ie3UJ3Y90iRiVX0req6u-25" value="P 4.5" style="rounded=0;whiteSpace=wrap;html=1;" vertex="1" parent="1">
          <mxGeometry x="350" y="350" width="50" height="20" as="geometry" />
        </mxCell>
        <mxCell id="Ie3UJ3Y90iRiVX0req6u-26" value="S1" style="text;html=1;align=center;verticalAlign=middle;resizable=0;points=[];autosize=1;strokeColor=none;fillColor=none;" vertex="1" parent="1">
          <mxGeometry x="150" y="225" width="40" height="30" as="geometry" />
        </mxCell>
        <mxCell id="Ie3UJ3Y90iRiVX0req6u-30" value="S2" style="text;html=1;align=center;verticalAlign=middle;resizable=0;points=[];autosize=1;strokeColor=none;fillColor=none;" vertex="1" parent="1">
          <mxGeometry x="150" y="255" width="40" height="30" as="geometry" />
        </mxCell>
        <mxCell id="Ie3UJ3Y90iRiVX0req6u-31" value="S3" style="text;html=1;align=center;verticalAlign=middle;resizable=0;points=[];autosize=1;strokeColor=none;fillColor=none;" vertex="1" parent="1">
          <mxGeometry x="150" y="285" width="40" height="30" as="geometry" />
        </mxCell>
        <mxCell id="Ie3UJ3Y90iRiVX0req6u-32" value="S4" style="text;html=1;align=center;verticalAlign=middle;resizable=0;points=[];autosize=1;strokeColor=none;fillColor=none;" vertex="1" parent="1">
          <mxGeometry x="150" y="315" width="40" height="30" as="geometry" />
        </mxCell>
        <mxCell id="Ie3UJ3Y90iRiVX0req6u-33" value="S5" style="text;html=1;align=center;verticalAlign=middle;resizable=0;points=[];autosize=1;strokeColor=none;fillColor=none;" vertex="1" parent="1">
          <mxGeometry x="150" y="345" width="40" height="30" as="geometry" />
        </mxCell>
        <mxCell id="Ie3UJ3Y90iRiVX0req6u-34" value="X" style="rounded=0;whiteSpace=wrap;html=1;" vertex="1" parent="1">
          <mxGeometry x="70" y="230" width="20" height="20" as="geometry" />
        </mxCell>
        <mxCell id="Ie3UJ3Y90iRiVX0req6u-35" value="Y" style="rounded=0;whiteSpace=wrap;html=1;" vertex="1" parent="1">
          <mxGeometry x="70" y="350" width="20" height="20" as="geometry" />
        </mxCell>
        <mxCell id="Ie3UJ3Y90iRiVX0req6u-36" value="" style="endArrow=classic;html=1;rounded=0;exitX=1;exitY=0.5;exitDx=0;exitDy=0;" edge="1" parent="1" source="Ie3UJ3Y90iRiVX0req6u-34">
          <mxGeometry width="50" height="50" relative="1" as="geometry">
            <mxPoint x="200" y="180" as="sourcePoint" />
            <mxPoint x="140" y="240" as="targetPoint" />
          </mxGeometry>
        </mxCell>
        <mxCell id="Ie3UJ3Y90iRiVX0req6u-37" value="" style="endArrow=classic;html=1;rounded=0;exitX=1;exitY=0.5;exitDx=0;exitDy=0;" edge="1" parent="1" source="Ie3UJ3Y90iRiVX0req6u-35">
          <mxGeometry width="50" height="50" relative="1" as="geometry">
            <mxPoint x="100" y="255" as="sourcePoint" />
            <mxPoint x="140" y="360" as="targetPoint" />
          </mxGeometry>
        </mxCell>
        <mxCell id="Ie3UJ3Y90iRiVX0req6u-38" value="" style="endArrow=none;html=1;rounded=0;" edge="1" parent="1" target="Ie3UJ3Y90iRiVX0req6u-13">
          <mxGeometry width="50" height="50" relative="1" as="geometry">
            <mxPoint x="200" y="299.5" as="sourcePoint" />
            <mxPoint x="414" y="300" as="targetPoint" />
          </mxGeometry>
        </mxCell>
        <mxCell id="Ie3UJ3Y90iRiVX0req6u-13" value="P 3.1" style="rounded=0;whiteSpace=wrap;html=1;" vertex="1" parent="1">
          <mxGeometry x="220" y="290" width="50" height="20" as="geometry" />
        </mxCell>
        <mxCell id="Ie3UJ3Y90iRiVX0req6u-40" value="" style="endArrow=none;html=1;rounded=0;" edge="1" parent="1" source="Ie3UJ3Y90iRiVX0req6u-18" target="Ie3UJ3Y90iRiVX0req6u-39">
          <mxGeometry width="50" height="50" relative="1" as="geometry">
            <mxPoint x="330" y="300" as="sourcePoint" />
            <mxPoint x="480" y="299.5" as="targetPoint" />
          </mxGeometry>
        </mxCell>
        <mxCell id="Ie3UJ3Y90iRiVX0req6u-39" value="P 4.5" style="rounded=0;whiteSpace=wrap;html=1;" vertex="1" parent="1">
          <mxGeometry x="349" y="290" width="50" height="20" as="geometry" />
        </mxCell>
        <mxCell id="Ie3UJ3Y90iRiVX0req6u-42" value="" style="endArrow=none;html=1;rounded=0;" edge="1" parent="1" source="Ie3UJ3Y90iRiVX0req6u-39" target="Ie3UJ3Y90iRiVX0req6u-41">
          <mxGeometry width="50" height="50" relative="1" as="geometry">
            <mxPoint x="399" y="300" as="sourcePoint" />
            <mxPoint x="480" y="299.5" as="targetPoint" />
          </mxGeometry>
        </mxCell>
        <mxCell id="Ie3UJ3Y90iRiVX0req6u-41" value="A 4.5 X" style="rounded=0;whiteSpace=wrap;html=1;" vertex="1" parent="1">
          <mxGeometry x="413" y="290" width="50" height="20" as="geometry" />
        </mxCell>
        <mxCell id="Ie3UJ3Y90iRiVX0req6u-43" value="" style="endArrow=none;html=1;rounded=0;" edge="1" parent="1" source="Ie3UJ3Y90iRiVX0req6u-47">
          <mxGeometry width="50" height="50" relative="1" as="geometry">
            <mxPoint x="200" y="505" as="sourcePoint" />
            <mxPoint x="480" y="505" as="targetPoint" />
          </mxGeometry>
        </mxCell>
        <mxCell id="Ie3UJ3Y90iRiVX0req6u-44" value="" style="endArrow=none;html=1;rounded=0;" edge="1" parent="1" source="Ie3UJ3Y90iRiVX0req6u-49">
          <mxGeometry width="50" height="50" relative="1" as="geometry">
            <mxPoint x="200" y="535" as="sourcePoint" />
            <mxPoint x="480" y="535" as="targetPoint" />
          </mxGeometry>
        </mxCell>
        <mxCell id="Ie3UJ3Y90iRiVX0req6u-45" value="" style="endArrow=none;html=1;rounded=0;" edge="1" parent="1" target="Ie3UJ3Y90iRiVX0req6u-46">
          <mxGeometry width="50" height="50" relative="1" as="geometry">
            <mxPoint x="200" y="505" as="sourcePoint" />
            <mxPoint x="480" y="505" as="targetPoint" />
          </mxGeometry>
        </mxCell>
        <mxCell id="Ie3UJ3Y90iRiVX0req6u-46" value="P 3.1" style="rounded=0;whiteSpace=wrap;html=1;" vertex="1" parent="1">
          <mxGeometry x="220" y="495" width="50" height="20" as="geometry" />
        </mxCell>
        <mxCell id="Ie3UJ3Y90iRiVX0req6u-48" value="" style="endArrow=none;html=1;rounded=0;" edge="1" parent="1" target="Ie3UJ3Y90iRiVX0req6u-49">
          <mxGeometry width="50" height="50" relative="1" as="geometry">
            <mxPoint x="200" y="535" as="sourcePoint" />
            <mxPoint x="480" y="535" as="targetPoint" />
          </mxGeometry>
        </mxCell>
        <mxCell id="Ie3UJ3Y90iRiVX0req6u-49" value="A 3.1 X" style="rounded=0;whiteSpace=wrap;html=1;" vertex="1" parent="1">
          <mxGeometry x="414" y="525" width="50" height="20" as="geometry" />
        </mxCell>
        <mxCell id="Ie3UJ3Y90iRiVX0req6u-50" value="" style="endArrow=none;html=1;rounded=0;" edge="1" parent="1">
          <mxGeometry width="50" height="50" relative="1" as="geometry">
            <mxPoint x="200" y="594.5" as="sourcePoint" />
            <mxPoint x="480" y="594.5" as="targetPoint" />
          </mxGeometry>
        </mxCell>
        <mxCell id="Ie3UJ3Y90iRiVX0req6u-51" value="" style="endArrow=none;html=1;rounded=0;" edge="1" parent="1">
          <mxGeometry width="50" height="50" relative="1" as="geometry">
            <mxPoint x="200" y="624.5" as="sourcePoint" />
            <mxPoint x="480" y="624.5" as="targetPoint" />
          </mxGeometry>
        </mxCell>
        <mxCell id="Ie3UJ3Y90iRiVX0req6u-52" value="P 3.1" style="rounded=0;whiteSpace=wrap;html=1;" vertex="1" parent="1">
          <mxGeometry x="220" y="525" width="50" height="20" as="geometry" />
        </mxCell>
        <mxCell id="Ie3UJ3Y90iRiVX0req6u-53" value="" style="endArrow=none;html=1;rounded=0;" edge="1" parent="1" source="Ie3UJ3Y90iRiVX0req6u-74">
          <mxGeometry width="50" height="50" relative="1" as="geometry">
            <mxPoint x="200" y="564.5" as="sourcePoint" />
            <mxPoint x="480" y="564.5" as="targetPoint" />
          </mxGeometry>
        </mxCell>
        <mxCell id="Ie3UJ3Y90iRiVX0req6u-54" value="A 3.1 X" style="rounded=0;whiteSpace=wrap;html=1;" vertex="1" parent="1">
          <mxGeometry x="280" y="555" width="50" height="20" as="geometry" />
        </mxCell>
        <mxCell id="Ie3UJ3Y90iRiVX0req6u-55" value="" style="endArrow=none;html=1;rounded=0;" edge="1" parent="1" source="Ie3UJ3Y90iRiVX0req6u-70" target="Ie3UJ3Y90iRiVX0req6u-54">
          <mxGeometry width="50" height="50" relative="1" as="geometry">
            <mxPoint x="200" y="564.5" as="sourcePoint" />
            <mxPoint x="480" y="564.5" as="targetPoint" />
          </mxGeometry>
        </mxCell>
        <mxCell id="Ie3UJ3Y90iRiVX0req6u-56" value="A 4.5 X" style="rounded=0;whiteSpace=wrap;html=1;" vertex="1" parent="1">
          <mxGeometry x="413" y="585" width="50" height="20" as="geometry" />
        </mxCell>
        <mxCell id="Ie3UJ3Y90iRiVX0req6u-57" value="P 4.5" style="rounded=0;whiteSpace=wrap;html=1;" vertex="1" parent="1">
          <mxGeometry x="349" y="585" width="50" height="20" as="geometry" />
        </mxCell>
        <mxCell id="Ie3UJ3Y90iRiVX0req6u-58" value="A 4.5 X" style="rounded=0;whiteSpace=wrap;html=1;" vertex="1" parent="1">
          <mxGeometry x="414" y="615" width="50" height="20" as="geometry" />
        </mxCell>
        <mxCell id="Ie3UJ3Y90iRiVX0req6u-59" value="P 4.5" style="rounded=0;whiteSpace=wrap;html=1;" vertex="1" parent="1">
          <mxGeometry x="350" y="615" width="50" height="20" as="geometry" />
        </mxCell>
        <mxCell id="Ie3UJ3Y90iRiVX0req6u-60" value="S1" style="text;html=1;align=center;verticalAlign=middle;resizable=0;points=[];autosize=1;strokeColor=none;fillColor=none;" vertex="1" parent="1">
          <mxGeometry x="150" y="490" width="40" height="30" as="geometry" />
        </mxCell>
        <mxCell id="Ie3UJ3Y90iRiVX0req6u-61" value="S2" style="text;html=1;align=center;verticalAlign=middle;resizable=0;points=[];autosize=1;strokeColor=none;fillColor=none;" vertex="1" parent="1">
          <mxGeometry x="150" y="520" width="40" height="30" as="geometry" />
        </mxCell>
        <mxCell id="Ie3UJ3Y90iRiVX0req6u-62" value="S3" style="text;html=1;align=center;verticalAlign=middle;resizable=0;points=[];autosize=1;strokeColor=none;fillColor=none;" vertex="1" parent="1">
          <mxGeometry x="150" y="550" width="40" height="30" as="geometry" />
        </mxCell>
        <mxCell id="Ie3UJ3Y90iRiVX0req6u-63" value="S4" style="text;html=1;align=center;verticalAlign=middle;resizable=0;points=[];autosize=1;strokeColor=none;fillColor=none;" vertex="1" parent="1">
          <mxGeometry x="150" y="580" width="40" height="30" as="geometry" />
        </mxCell>
        <mxCell id="Ie3UJ3Y90iRiVX0req6u-64" value="S5" style="text;html=1;align=center;verticalAlign=middle;resizable=0;points=[];autosize=1;strokeColor=none;fillColor=none;" vertex="1" parent="1">
          <mxGeometry x="150" y="610" width="40" height="30" as="geometry" />
        </mxCell>
        <mxCell id="Ie3UJ3Y90iRiVX0req6u-65" value="X" style="rounded=0;whiteSpace=wrap;html=1;" vertex="1" parent="1">
          <mxGeometry x="70" y="495" width="20" height="20" as="geometry" />
        </mxCell>
        <mxCell id="Ie3UJ3Y90iRiVX0req6u-66" value="Y" style="rounded=0;whiteSpace=wrap;html=1;" vertex="1" parent="1">
          <mxGeometry x="70" y="615" width="20" height="20" as="geometry" />
        </mxCell>
        <mxCell id="Ie3UJ3Y90iRiVX0req6u-67" value="" style="endArrow=classic;html=1;rounded=0;exitX=1;exitY=0.5;exitDx=0;exitDy=0;" edge="1" parent="1" source="Ie3UJ3Y90iRiVX0req6u-65">
          <mxGeometry width="50" height="50" relative="1" as="geometry">
            <mxPoint x="200" y="445" as="sourcePoint" />
            <mxPoint x="140" y="505" as="targetPoint" />
          </mxGeometry>
        </mxCell>
        <mxCell id="Ie3UJ3Y90iRiVX0req6u-68" value="" style="endArrow=classic;html=1;rounded=0;exitX=1;exitY=0.5;exitDx=0;exitDy=0;" edge="1" parent="1" source="Ie3UJ3Y90iRiVX0req6u-66">
          <mxGeometry width="50" height="50" relative="1" as="geometry">
            <mxPoint x="100" y="520" as="sourcePoint" />
            <mxPoint x="140" y="625" as="targetPoint" />
          </mxGeometry>
        </mxCell>
        <mxCell id="Ie3UJ3Y90iRiVX0req6u-69" value="" style="endArrow=none;html=1;rounded=0;" edge="1" parent="1" target="Ie3UJ3Y90iRiVX0req6u-70">
          <mxGeometry width="50" height="50" relative="1" as="geometry">
            <mxPoint x="200" y="564.5" as="sourcePoint" />
            <mxPoint x="414" y="565" as="targetPoint" />
          </mxGeometry>
        </mxCell>
        <mxCell id="Ie3UJ3Y90iRiVX0req6u-70" value="P 3.1" style="rounded=0;whiteSpace=wrap;html=1;" vertex="1" parent="1">
          <mxGeometry x="220" y="555" width="50" height="20" as="geometry" />
        </mxCell>
        <mxCell id="Ie3UJ3Y90iRiVX0req6u-71" value="" style="endArrow=none;html=1;rounded=0;" edge="1" parent="1" source="Ie3UJ3Y90iRiVX0req6u-54" target="Ie3UJ3Y90iRiVX0req6u-72">
          <mxGeometry width="50" height="50" relative="1" as="geometry">
            <mxPoint x="330" y="565" as="sourcePoint" />
            <mxPoint x="480" y="564.5" as="targetPoint" />
          </mxGeometry>
        </mxCell>
        <mxCell id="Ie3UJ3Y90iRiVX0req6u-72" value="P 4.5" style="rounded=0;whiteSpace=wrap;html=1;" vertex="1" parent="1">
          <mxGeometry x="349" y="555" width="50" height="20" as="geometry" />
        </mxCell>
        <mxCell id="Ie3UJ3Y90iRiVX0req6u-73" value="" style="endArrow=none;html=1;rounded=0;" edge="1" parent="1" source="Ie3UJ3Y90iRiVX0req6u-72" target="Ie3UJ3Y90iRiVX0req6u-74">
          <mxGeometry width="50" height="50" relative="1" as="geometry">
            <mxPoint x="399" y="565" as="sourcePoint" />
            <mxPoint x="480" y="564.5" as="targetPoint" />
          </mxGeometry>
        </mxCell>
        <mxCell id="Ie3UJ3Y90iRiVX0req6u-74" value="A 4.5 X" style="rounded=0;whiteSpace=wrap;html=1;" vertex="1" parent="1">
          <mxGeometry x="413" y="555" width="50" height="20" as="geometry" />
        </mxCell>
        <mxCell id="Ie3UJ3Y90iRiVX0req6u-75" value="" style="endArrow=none;html=1;rounded=0;" edge="1" parent="1" source="Ie3UJ3Y90iRiVX0req6u-46" target="Ie3UJ3Y90iRiVX0req6u-47">
          <mxGeometry width="50" height="50" relative="1" as="geometry">
            <mxPoint x="270" y="505" as="sourcePoint" />
            <mxPoint x="480" y="505" as="targetPoint" />
          </mxGeometry>
        </mxCell>
        <mxCell id="Ie3UJ3Y90iRiVX0req6u-47" value="A 3.1 X" style="rounded=0;whiteSpace=wrap;html=1;" vertex="1" parent="1">
          <mxGeometry x="413" y="495" width="50" height="20" as="geometry" />
        </mxCell>
        <mxCell id="Ie3UJ3Y90iRiVX0req6u-109" value="" style="endArrow=none;html=1;rounded=0;" edge="1" parent="1" source="Ie3UJ3Y90iRiVX0req6u-141">
          <mxGeometry width="50" height="50" relative="1" as="geometry">
            <mxPoint x="200" y="755" as="sourcePoint" />
            <mxPoint x="540" y="755" as="targetPoint" />
          </mxGeometry>
        </mxCell>
        <mxCell id="Ie3UJ3Y90iRiVX0req6u-110" value="" style="endArrow=none;html=1;rounded=0;" edge="1" parent="1" source="Ie3UJ3Y90iRiVX0req6u-114">
          <mxGeometry width="50" height="50" relative="1" as="geometry">
            <mxPoint x="200" y="785" as="sourcePoint" />
            <mxPoint x="540" y="785" as="targetPoint" />
          </mxGeometry>
        </mxCell>
        <mxCell id="Ie3UJ3Y90iRiVX0req6u-111" value="" style="endArrow=none;html=1;rounded=0;" edge="1" parent="1" target="Ie3UJ3Y90iRiVX0req6u-112">
          <mxGeometry width="50" height="50" relative="1" as="geometry">
            <mxPoint x="200" y="755" as="sourcePoint" />
            <mxPoint x="480" y="755" as="targetPoint" />
          </mxGeometry>
        </mxCell>
        <mxCell id="Ie3UJ3Y90iRiVX0req6u-112" value="P 3.1" style="rounded=0;whiteSpace=wrap;html=1;" vertex="1" parent="1">
          <mxGeometry x="220" y="745" width="50" height="20" as="geometry" />
        </mxCell>
        <mxCell id="Ie3UJ3Y90iRiVX0req6u-113" value="" style="endArrow=none;html=1;rounded=0;" edge="1" parent="1" target="Ie3UJ3Y90iRiVX0req6u-114">
          <mxGeometry width="50" height="50" relative="1" as="geometry">
            <mxPoint x="200" y="785" as="sourcePoint" />
            <mxPoint x="480" y="785" as="targetPoint" />
          </mxGeometry>
        </mxCell>
        <mxCell id="Ie3UJ3Y90iRiVX0req6u-114" value="A 3.1 X" style="rounded=0;whiteSpace=wrap;html=1;" vertex="1" parent="1">
          <mxGeometry x="414" y="775" width="50" height="20" as="geometry" />
        </mxCell>
        <mxCell id="Ie3UJ3Y90iRiVX0req6u-115" value="" style="endArrow=none;html=1;rounded=0;" edge="1" parent="1">
          <mxGeometry width="50" height="50" relative="1" as="geometry">
            <mxPoint x="200" y="844.5" as="sourcePoint" />
            <mxPoint x="540" y="845" as="targetPoint" />
          </mxGeometry>
        </mxCell>
        <mxCell id="Ie3UJ3Y90iRiVX0req6u-116" value="" style="endArrow=none;html=1;rounded=0;" edge="1" parent="1">
          <mxGeometry width="50" height="50" relative="1" as="geometry">
            <mxPoint x="200" y="874.5" as="sourcePoint" />
            <mxPoint x="540" y="875" as="targetPoint" />
          </mxGeometry>
        </mxCell>
        <mxCell id="Ie3UJ3Y90iRiVX0req6u-117" value="P 3.1" style="rounded=0;whiteSpace=wrap;html=1;" vertex="1" parent="1">
          <mxGeometry x="220" y="775" width="50" height="20" as="geometry" />
        </mxCell>
        <mxCell id="Ie3UJ3Y90iRiVX0req6u-120" value="" style="endArrow=none;html=1;rounded=0;" edge="1" parent="1" source="Ie3UJ3Y90iRiVX0req6u-135">
          <mxGeometry width="50" height="50" relative="1" as="geometry">
            <mxPoint x="200" y="814.5" as="sourcePoint" />
            <mxPoint x="330" y="815" as="targetPoint" />
          </mxGeometry>
        </mxCell>
        <mxCell id="Ie3UJ3Y90iRiVX0req6u-121" value="A 4.5 Y" style="rounded=0;whiteSpace=wrap;html=1;" vertex="1" parent="1">
          <mxGeometry x="413" y="835" width="50" height="20" as="geometry" />
        </mxCell>
        <mxCell id="Ie3UJ3Y90iRiVX0req6u-122" value="P 4.5" style="rounded=0;whiteSpace=wrap;html=1;" vertex="1" parent="1">
          <mxGeometry x="349" y="835" width="50" height="20" as="geometry" />
        </mxCell>
        <mxCell id="Ie3UJ3Y90iRiVX0req6u-123" value="A 4.5 Y" style="rounded=0;whiteSpace=wrap;html=1;" vertex="1" parent="1">
          <mxGeometry x="414" y="865" width="50" height="20" as="geometry" />
        </mxCell>
        <mxCell id="Ie3UJ3Y90iRiVX0req6u-124" value="P 4.5" style="rounded=0;whiteSpace=wrap;html=1;" vertex="1" parent="1">
          <mxGeometry x="350" y="865" width="50" height="20" as="geometry" />
        </mxCell>
        <mxCell id="Ie3UJ3Y90iRiVX0req6u-125" value="S1" style="text;html=1;align=center;verticalAlign=middle;resizable=0;points=[];autosize=1;strokeColor=none;fillColor=none;" vertex="1" parent="1">
          <mxGeometry x="150" y="740" width="40" height="30" as="geometry" />
        </mxCell>
        <mxCell id="Ie3UJ3Y90iRiVX0req6u-126" value="S2" style="text;html=1;align=center;verticalAlign=middle;resizable=0;points=[];autosize=1;strokeColor=none;fillColor=none;" vertex="1" parent="1">
          <mxGeometry x="150" y="770" width="40" height="30" as="geometry" />
        </mxCell>
        <mxCell id="Ie3UJ3Y90iRiVX0req6u-127" value="S3" style="text;html=1;align=center;verticalAlign=middle;resizable=0;points=[];autosize=1;strokeColor=none;fillColor=none;" vertex="1" parent="1">
          <mxGeometry x="150" y="800" width="40" height="30" as="geometry" />
        </mxCell>
        <mxCell id="Ie3UJ3Y90iRiVX0req6u-128" value="S4" style="text;html=1;align=center;verticalAlign=middle;resizable=0;points=[];autosize=1;strokeColor=none;fillColor=none;" vertex="1" parent="1">
          <mxGeometry x="150" y="830" width="40" height="30" as="geometry" />
        </mxCell>
        <mxCell id="Ie3UJ3Y90iRiVX0req6u-129" value="S5" style="text;html=1;align=center;verticalAlign=middle;resizable=0;points=[];autosize=1;strokeColor=none;fillColor=none;" vertex="1" parent="1">
          <mxGeometry x="150" y="860" width="40" height="30" as="geometry" />
        </mxCell>
        <mxCell id="Ie3UJ3Y90iRiVX0req6u-130" value="X" style="rounded=0;whiteSpace=wrap;html=1;" vertex="1" parent="1">
          <mxGeometry x="70" y="745" width="20" height="20" as="geometry" />
        </mxCell>
        <mxCell id="Ie3UJ3Y90iRiVX0req6u-131" value="Y" style="rounded=0;whiteSpace=wrap;html=1;" vertex="1" parent="1">
          <mxGeometry x="70" y="865" width="20" height="20" as="geometry" />
        </mxCell>
        <mxCell id="Ie3UJ3Y90iRiVX0req6u-132" value="" style="endArrow=classic;html=1;rounded=0;exitX=1;exitY=0.5;exitDx=0;exitDy=0;" edge="1" parent="1" source="Ie3UJ3Y90iRiVX0req6u-130">
          <mxGeometry width="50" height="50" relative="1" as="geometry">
            <mxPoint x="200" y="695" as="sourcePoint" />
            <mxPoint x="140" y="755" as="targetPoint" />
          </mxGeometry>
        </mxCell>
        <mxCell id="Ie3UJ3Y90iRiVX0req6u-133" value="" style="endArrow=classic;html=1;rounded=0;exitX=1;exitY=0.5;exitDx=0;exitDy=0;" edge="1" parent="1" source="Ie3UJ3Y90iRiVX0req6u-131">
          <mxGeometry width="50" height="50" relative="1" as="geometry">
            <mxPoint x="100" y="770" as="sourcePoint" />
            <mxPoint x="140" y="875" as="targetPoint" />
          </mxGeometry>
        </mxCell>
        <mxCell id="Ie3UJ3Y90iRiVX0req6u-134" value="" style="endArrow=none;html=1;rounded=0;" edge="1" parent="1" target="Ie3UJ3Y90iRiVX0req6u-135">
          <mxGeometry width="50" height="50" relative="1" as="geometry">
            <mxPoint x="200" y="814.5" as="sourcePoint" />
            <mxPoint x="414" y="815" as="targetPoint" />
          </mxGeometry>
        </mxCell>
        <mxCell id="Ie3UJ3Y90iRiVX0req6u-135" value="P 3.1" style="rounded=0;whiteSpace=wrap;html=1;" vertex="1" parent="1">
          <mxGeometry x="220" y="805" width="50" height="20" as="geometry" />
        </mxCell>
        <mxCell id="Ie3UJ3Y90iRiVX0req6u-136" value="" style="endArrow=none;html=1;rounded=0;" edge="1" parent="1" target="Ie3UJ3Y90iRiVX0req6u-137">
          <mxGeometry width="50" height="50" relative="1" as="geometry">
            <mxPoint x="330" y="815" as="sourcePoint" />
            <mxPoint x="480" y="814.5" as="targetPoint" />
          </mxGeometry>
        </mxCell>
        <mxCell id="Ie3UJ3Y90iRiVX0req6u-137" value="P 4.5" style="rounded=0;whiteSpace=wrap;html=1;" vertex="1" parent="1">
          <mxGeometry x="349" y="805" width="50" height="20" as="geometry" />
        </mxCell>
        <mxCell id="Ie3UJ3Y90iRiVX0req6u-138" value="" style="endArrow=none;html=1;rounded=0;" edge="1" parent="1" source="Ie3UJ3Y90iRiVX0req6u-145">
          <mxGeometry width="50" height="50" relative="1" as="geometry">
            <mxPoint x="399" y="815" as="sourcePoint" />
            <mxPoint x="540" y="815" as="targetPoint" />
          </mxGeometry>
        </mxCell>
        <mxCell id="Ie3UJ3Y90iRiVX0req6u-140" value="" style="endArrow=none;html=1;rounded=0;" edge="1" parent="1" source="Ie3UJ3Y90iRiVX0req6u-112" target="Ie3UJ3Y90iRiVX0req6u-141">
          <mxGeometry width="50" height="50" relative="1" as="geometry">
            <mxPoint x="270" y="755" as="sourcePoint" />
            <mxPoint x="480" y="755" as="targetPoint" />
          </mxGeometry>
        </mxCell>
        <mxCell id="Ie3UJ3Y90iRiVX0req6u-141" value="A 3.1 X" style="rounded=0;whiteSpace=wrap;html=1;" vertex="1" parent="1">
          <mxGeometry x="280" y="745" width="50" height="20" as="geometry" />
        </mxCell>
        <mxCell id="Ie3UJ3Y90iRiVX0req6u-146" value="" style="endArrow=none;html=1;rounded=0;" edge="1" parent="1" source="Ie3UJ3Y90iRiVX0req6u-137" target="Ie3UJ3Y90iRiVX0req6u-145">
          <mxGeometry width="50" height="50" relative="1" as="geometry">
            <mxPoint x="399" y="815" as="sourcePoint" />
            <mxPoint x="540" y="815" as="targetPoint" />
          </mxGeometry>
        </mxCell>
        <mxCell id="Ie3UJ3Y90iRiVX0req6u-145" value="A 4.5 Y" style="rounded=0;whiteSpace=wrap;html=1;" vertex="1" parent="1">
          <mxGeometry x="474" y="805" width="50" height="20" as="geometry" />
        </mxCell>
        <mxCell id="Ie3UJ3Y90iRiVX0req6u-139" value="A 3.1 X" style="rounded=0;whiteSpace=wrap;html=1;shadow=0;" vertex="1" parent="1">
          <mxGeometry x="413" y="805" width="50" height="20" as="geometry" />
        </mxCell>
        <mxCell id="Ie3UJ3Y90iRiVX0req6u-149" value="" style="group" vertex="1" connectable="0" parent="1">
          <mxGeometry x="428" y="805" width="20" height="20" as="geometry" />
        </mxCell>
        <mxCell id="Ie3UJ3Y90iRiVX0req6u-147" value="" style="endArrow=none;html=1;rounded=0;" edge="1" parent="Ie3UJ3Y90iRiVX0req6u-149">
          <mxGeometry width="50" height="50" relative="1" as="geometry">
            <mxPoint y="20" as="sourcePoint" />
            <mxPoint x="20" as="targetPoint" />
          </mxGeometry>
        </mxCell>
        <mxCell id="Ie3UJ3Y90iRiVX0req6u-148" value="" style="endArrow=none;html=1;rounded=0;" edge="1" parent="Ie3UJ3Y90iRiVX0req6u-149">
          <mxGeometry width="50" height="50" relative="1" as="geometry">
            <mxPoint x="20" y="20" as="sourcePoint" />
            <mxPoint as="targetPoint" />
          </mxGeometry>
        </mxCell>
        <mxCell id="Ie3UJ3Y90iRiVX0req6u-150" value="" style="endArrow=none;html=1;rounded=0;" edge="1" parent="1" source="Ie3UJ3Y90iRiVX0req6u-179">
          <mxGeometry width="50" height="50" relative="1" as="geometry">
            <mxPoint x="200" y="985" as="sourcePoint" />
            <mxPoint x="680" y="985" as="targetPoint" />
          </mxGeometry>
        </mxCell>
        <mxCell id="Ie3UJ3Y90iRiVX0req6u-151" value="" style="endArrow=none;html=1;rounded=0;" edge="1" parent="1" source="Ie3UJ3Y90iRiVX0req6u-205">
          <mxGeometry width="50" height="50" relative="1" as="geometry">
            <mxPoint x="200" y="1015" as="sourcePoint" />
            <mxPoint x="680" y="1015" as="targetPoint" />
          </mxGeometry>
        </mxCell>
        <mxCell id="Ie3UJ3Y90iRiVX0req6u-152" value="" style="endArrow=none;html=1;rounded=0;" edge="1" parent="1" target="Ie3UJ3Y90iRiVX0req6u-153">
          <mxGeometry width="50" height="50" relative="1" as="geometry">
            <mxPoint x="200" y="985" as="sourcePoint" />
            <mxPoint x="480" y="985" as="targetPoint" />
          </mxGeometry>
        </mxCell>
        <mxCell id="Ie3UJ3Y90iRiVX0req6u-153" value="P 3.1" style="rounded=0;whiteSpace=wrap;html=1;" vertex="1" parent="1">
          <mxGeometry x="220" y="975" width="50" height="20" as="geometry" />
        </mxCell>
        <mxCell id="Ie3UJ3Y90iRiVX0req6u-154" value="" style="endArrow=none;html=1;rounded=0;" edge="1" parent="1" target="Ie3UJ3Y90iRiVX0req6u-155">
          <mxGeometry width="50" height="50" relative="1" as="geometry">
            <mxPoint x="200" y="1015" as="sourcePoint" />
            <mxPoint x="480" y="1015" as="targetPoint" />
          </mxGeometry>
        </mxCell>
        <mxCell id="Ie3UJ3Y90iRiVX0req6u-155" value="A 3.1 X" style="rounded=0;whiteSpace=wrap;html=1;" vertex="1" parent="1">
          <mxGeometry x="350" y="1005" width="50" height="20" as="geometry" />
        </mxCell>
        <mxCell id="Ie3UJ3Y90iRiVX0req6u-156" value="" style="endArrow=none;html=1;rounded=0;" edge="1" parent="1" source="Ie3UJ3Y90iRiVX0req6u-209">
          <mxGeometry width="50" height="50" relative="1" as="geometry">
            <mxPoint x="200" y="1074.5" as="sourcePoint" />
            <mxPoint x="680" y="1075" as="targetPoint" />
          </mxGeometry>
        </mxCell>
        <mxCell id="Ie3UJ3Y90iRiVX0req6u-157" value="" style="endArrow=none;html=1;rounded=0;" edge="1" parent="1" source="Ie3UJ3Y90iRiVX0req6u-201">
          <mxGeometry width="50" height="50" relative="1" as="geometry">
            <mxPoint x="200" y="1104.5" as="sourcePoint" />
            <mxPoint x="680" y="1105" as="targetPoint" />
          </mxGeometry>
        </mxCell>
        <mxCell id="Ie3UJ3Y90iRiVX0req6u-158" value="P 3.1" style="rounded=0;whiteSpace=wrap;html=1;" vertex="1" parent="1">
          <mxGeometry x="220" y="1005" width="50" height="20" as="geometry" />
        </mxCell>
        <mxCell id="Ie3UJ3Y90iRiVX0req6u-159" value="" style="endArrow=none;html=1;rounded=0;" edge="1" parent="1" source="Ie3UJ3Y90iRiVX0req6u-186">
          <mxGeometry width="50" height="50" relative="1" as="geometry">
            <mxPoint x="200" y="1044.5" as="sourcePoint" />
            <mxPoint x="330" y="1045" as="targetPoint" />
          </mxGeometry>
        </mxCell>
        <mxCell id="Ie3UJ3Y90iRiVX0req6u-164" value="S1" style="text;html=1;align=center;verticalAlign=middle;resizable=0;points=[];autosize=1;strokeColor=none;fillColor=none;" vertex="1" parent="1">
          <mxGeometry x="150" y="970" width="40" height="30" as="geometry" />
        </mxCell>
        <mxCell id="Ie3UJ3Y90iRiVX0req6u-165" value="S2" style="text;html=1;align=center;verticalAlign=middle;resizable=0;points=[];autosize=1;strokeColor=none;fillColor=none;" vertex="1" parent="1">
          <mxGeometry x="150" y="1000" width="40" height="30" as="geometry" />
        </mxCell>
        <mxCell id="Ie3UJ3Y90iRiVX0req6u-166" value="S3" style="text;html=1;align=center;verticalAlign=middle;resizable=0;points=[];autosize=1;strokeColor=none;fillColor=none;" vertex="1" parent="1">
          <mxGeometry x="150" y="1030" width="40" height="30" as="geometry" />
        </mxCell>
        <mxCell id="Ie3UJ3Y90iRiVX0req6u-167" value="S4" style="text;html=1;align=center;verticalAlign=middle;resizable=0;points=[];autosize=1;strokeColor=none;fillColor=none;" vertex="1" parent="1">
          <mxGeometry x="150" y="1060" width="40" height="30" as="geometry" />
        </mxCell>
        <mxCell id="Ie3UJ3Y90iRiVX0req6u-168" value="S5" style="text;html=1;align=center;verticalAlign=middle;resizable=0;points=[];autosize=1;strokeColor=none;fillColor=none;" vertex="1" parent="1">
          <mxGeometry x="150" y="1090" width="40" height="30" as="geometry" />
        </mxCell>
        <mxCell id="Ie3UJ3Y90iRiVX0req6u-169" value="X" style="rounded=0;whiteSpace=wrap;html=1;" vertex="1" parent="1">
          <mxGeometry x="70" y="975" width="20" height="20" as="geometry" />
        </mxCell>
        <mxCell id="Ie3UJ3Y90iRiVX0req6u-170" value="Y" style="rounded=0;whiteSpace=wrap;html=1;" vertex="1" parent="1">
          <mxGeometry x="70" y="1095" width="20" height="20" as="geometry" />
        </mxCell>
        <mxCell id="Ie3UJ3Y90iRiVX0req6u-171" value="" style="endArrow=classic;html=1;rounded=0;exitX=1;exitY=0.5;exitDx=0;exitDy=0;" edge="1" parent="1" source="Ie3UJ3Y90iRiVX0req6u-169">
          <mxGeometry width="50" height="50" relative="1" as="geometry">
            <mxPoint x="200" y="925" as="sourcePoint" />
            <mxPoint x="140" y="985" as="targetPoint" />
          </mxGeometry>
        </mxCell>
        <mxCell id="Ie3UJ3Y90iRiVX0req6u-172" value="" style="endArrow=classic;html=1;rounded=0;exitX=1;exitY=0.5;exitDx=0;exitDy=0;" edge="1" parent="1" source="Ie3UJ3Y90iRiVX0req6u-170">
          <mxGeometry width="50" height="50" relative="1" as="geometry">
            <mxPoint x="100" y="1000" as="sourcePoint" />
            <mxPoint x="140" y="1105" as="targetPoint" />
          </mxGeometry>
        </mxCell>
        <mxCell id="Ie3UJ3Y90iRiVX0req6u-173" value="" style="endArrow=none;html=1;rounded=0;" edge="1" parent="1" target="Ie3UJ3Y90iRiVX0req6u-174">
          <mxGeometry width="50" height="50" relative="1" as="geometry">
            <mxPoint x="200" y="1044.5" as="sourcePoint" />
            <mxPoint x="414" y="1045" as="targetPoint" />
          </mxGeometry>
        </mxCell>
        <mxCell id="Ie3UJ3Y90iRiVX0req6u-174" value="P 3.1" style="rounded=0;whiteSpace=wrap;html=1;" vertex="1" parent="1">
          <mxGeometry x="220" y="1035" width="50" height="20" as="geometry" />
        </mxCell>
        <mxCell id="Ie3UJ3Y90iRiVX0req6u-175" value="" style="endArrow=none;html=1;rounded=0;" edge="1" parent="1">
          <mxGeometry width="50" height="50" relative="1" as="geometry">
            <mxPoint x="330" y="1045" as="sourcePoint" />
            <mxPoint x="400" y="1045" as="targetPoint" />
          </mxGeometry>
        </mxCell>
        <mxCell id="Ie3UJ3Y90iRiVX0req6u-177" value="" style="endArrow=none;html=1;rounded=0;" edge="1" parent="1" source="Ie3UJ3Y90iRiVX0req6u-207">
          <mxGeometry width="50" height="50" relative="1" as="geometry">
            <mxPoint x="399" y="1045" as="sourcePoint" />
            <mxPoint x="680" y="1045" as="targetPoint" />
          </mxGeometry>
        </mxCell>
        <mxCell id="Ie3UJ3Y90iRiVX0req6u-178" value="" style="endArrow=none;html=1;rounded=0;" edge="1" parent="1" source="Ie3UJ3Y90iRiVX0req6u-153" target="Ie3UJ3Y90iRiVX0req6u-179">
          <mxGeometry width="50" height="50" relative="1" as="geometry">
            <mxPoint x="270" y="985" as="sourcePoint" />
            <mxPoint x="480" y="985" as="targetPoint" />
          </mxGeometry>
        </mxCell>
        <mxCell id="Ie3UJ3Y90iRiVX0req6u-179" value="A 3.1 X" style="rounded=0;whiteSpace=wrap;html=1;" vertex="1" parent="1">
          <mxGeometry x="349" y="975" width="50" height="20" as="geometry" />
        </mxCell>
        <mxCell id="Ie3UJ3Y90iRiVX0req6u-180" value="" style="endArrow=none;html=1;rounded=0;" edge="1" parent="1" source="Ie3UJ3Y90iRiVX0req6u-197" target="Ie3UJ3Y90iRiVX0req6u-181">
          <mxGeometry width="50" height="50" relative="1" as="geometry">
            <mxPoint x="399" y="1045" as="sourcePoint" />
            <mxPoint x="540" y="1045" as="targetPoint" />
          </mxGeometry>
        </mxCell>
        <mxCell id="Ie3UJ3Y90iRiVX0req6u-181" value="A 3.5 Y" style="rounded=0;whiteSpace=wrap;html=1;" vertex="1" parent="1">
          <mxGeometry x="474" y="1035" width="50" height="20" as="geometry" />
        </mxCell>
        <mxCell id="Ie3UJ3Y90iRiVX0req6u-182" value="A 3.1 X" style="rounded=0;whiteSpace=wrap;html=1;shadow=0;" vertex="1" parent="1">
          <mxGeometry x="350" y="1035" width="50" height="20" as="geometry" />
        </mxCell>
        <mxCell id="Ie3UJ3Y90iRiVX0req6u-183" value="" style="group" vertex="1" connectable="0" parent="1">
          <mxGeometry x="365" y="1035" width="20" height="20" as="geometry" />
        </mxCell>
        <mxCell id="Ie3UJ3Y90iRiVX0req6u-184" value="" style="endArrow=none;html=1;rounded=0;" edge="1" parent="Ie3UJ3Y90iRiVX0req6u-183">
          <mxGeometry width="50" height="50" relative="1" as="geometry">
            <mxPoint y="20" as="sourcePoint" />
            <mxPoint x="20" as="targetPoint" />
          </mxGeometry>
        </mxCell>
        <mxCell id="Ie3UJ3Y90iRiVX0req6u-185" value="" style="endArrow=none;html=1;rounded=0;" edge="1" parent="Ie3UJ3Y90iRiVX0req6u-183">
          <mxGeometry width="50" height="50" relative="1" as="geometry">
            <mxPoint x="20" y="20" as="sourcePoint" />
            <mxPoint as="targetPoint" />
          </mxGeometry>
        </mxCell>
        <mxCell id="Ie3UJ3Y90iRiVX0req6u-187" value="" style="endArrow=none;html=1;rounded=0;" edge="1" parent="1" source="Ie3UJ3Y90iRiVX0req6u-174" target="Ie3UJ3Y90iRiVX0req6u-186">
          <mxGeometry width="50" height="50" relative="1" as="geometry">
            <mxPoint x="270" y="1045" as="sourcePoint" />
            <mxPoint x="330" y="1045" as="targetPoint" />
          </mxGeometry>
        </mxCell>
        <mxCell id="Ie3UJ3Y90iRiVX0req6u-186" value="P 3.5" style="rounded=0;whiteSpace=wrap;html=1;" vertex="1" parent="1">
          <mxGeometry x="280" y="1035" width="50" height="20" as="geometry" />
        </mxCell>
        <mxCell id="Ie3UJ3Y90iRiVX0req6u-189" value="" style="endArrow=none;html=1;rounded=0;" edge="1" parent="1" target="Ie3UJ3Y90iRiVX0req6u-188">
          <mxGeometry width="50" height="50" relative="1" as="geometry">
            <mxPoint x="200" y="1074.5" as="sourcePoint" />
            <mxPoint x="540" y="1075" as="targetPoint" />
          </mxGeometry>
        </mxCell>
        <mxCell id="Ie3UJ3Y90iRiVX0req6u-188" value="P 3.5" style="rounded=0;whiteSpace=wrap;html=1;" vertex="1" parent="1">
          <mxGeometry x="280" y="1065" width="50" height="20" as="geometry" />
        </mxCell>
        <mxCell id="Ie3UJ3Y90iRiVX0req6u-191" value="" style="endArrow=none;html=1;rounded=0;" edge="1" parent="1" target="Ie3UJ3Y90iRiVX0req6u-190">
          <mxGeometry width="50" height="50" relative="1" as="geometry">
            <mxPoint x="200" y="1104.5" as="sourcePoint" />
            <mxPoint x="540" y="1105" as="targetPoint" />
          </mxGeometry>
        </mxCell>
        <mxCell id="Ie3UJ3Y90iRiVX0req6u-190" value="P 3.5" style="rounded=0;whiteSpace=wrap;html=1;" vertex="1" parent="1">
          <mxGeometry x="280" y="1095" width="50" height="20" as="geometry" />
        </mxCell>
        <mxCell id="Ie3UJ3Y90iRiVX0req6u-193" value="A 4.1" style="rounded=0;whiteSpace=wrap;html=1;" vertex="1" parent="1">
          <mxGeometry x="413" y="975" width="50" height="20" as="geometry" />
        </mxCell>
        <mxCell id="Ie3UJ3Y90iRiVX0req6u-196" value="" style="endArrow=none;html=1;rounded=0;" edge="1" parent="1" source="Ie3UJ3Y90iRiVX0req6u-155" target="Ie3UJ3Y90iRiVX0req6u-195">
          <mxGeometry width="50" height="50" relative="1" as="geometry">
            <mxPoint x="400" y="1015" as="sourcePoint" />
            <mxPoint x="540" y="1015" as="targetPoint" />
          </mxGeometry>
        </mxCell>
        <mxCell id="Ie3UJ3Y90iRiVX0req6u-195" value="A 4.1" style="rounded=0;whiteSpace=wrap;html=1;" vertex="1" parent="1">
          <mxGeometry x="414" y="1005" width="50" height="20" as="geometry" />
        </mxCell>
        <mxCell id="Ie3UJ3Y90iRiVX0req6u-198" value="" style="endArrow=none;html=1;rounded=0;" edge="1" parent="1" target="Ie3UJ3Y90iRiVX0req6u-197">
          <mxGeometry width="50" height="50" relative="1" as="geometry">
            <mxPoint x="399" y="1045" as="sourcePoint" />
            <mxPoint x="474" y="1045" as="targetPoint" />
          </mxGeometry>
        </mxCell>
        <mxCell id="Ie3UJ3Y90iRiVX0req6u-197" value="A 4.1" style="rounded=0;whiteSpace=wrap;html=1;" vertex="1" parent="1">
          <mxGeometry x="413" y="1035" width="50" height="20" as="geometry" />
        </mxCell>
        <mxCell id="Ie3UJ3Y90iRiVX0req6u-200" value="" style="endArrow=none;html=1;rounded=0;" edge="1" parent="1" source="Ie3UJ3Y90iRiVX0req6u-188" target="Ie3UJ3Y90iRiVX0req6u-199">
          <mxGeometry width="50" height="50" relative="1" as="geometry">
            <mxPoint x="330" y="1075" as="sourcePoint" />
            <mxPoint x="540" y="1075" as="targetPoint" />
          </mxGeometry>
        </mxCell>
        <mxCell id="Ie3UJ3Y90iRiVX0req6u-199" value="A 3.5 Y" style="rounded=0;whiteSpace=wrap;html=1;" vertex="1" parent="1">
          <mxGeometry x="474" y="1065" width="50" height="20" as="geometry" />
        </mxCell>
        <mxCell id="Ie3UJ3Y90iRiVX0req6u-202" value="" style="endArrow=none;html=1;rounded=0;" edge="1" parent="1" source="Ie3UJ3Y90iRiVX0req6u-190" target="Ie3UJ3Y90iRiVX0req6u-201">
          <mxGeometry width="50" height="50" relative="1" as="geometry">
            <mxPoint x="330" y="1105" as="sourcePoint" />
            <mxPoint x="540" y="1105" as="targetPoint" />
          </mxGeometry>
        </mxCell>
        <mxCell id="Ie3UJ3Y90iRiVX0req6u-201" value="A 3.5 Y" style="rounded=0;whiteSpace=wrap;html=1;" vertex="1" parent="1">
          <mxGeometry x="474" y="1095" width="50" height="20" as="geometry" />
        </mxCell>
        <mxCell id="Ie3UJ3Y90iRiVX0req6u-204" value="A 4.1 Y" style="rounded=0;whiteSpace=wrap;html=1;" vertex="1" parent="1">
          <mxGeometry x="610" y="975" width="50" height="20" as="geometry" />
        </mxCell>
        <mxCell id="Ie3UJ3Y90iRiVX0req6u-206" value="" style="endArrow=none;html=1;rounded=0;" edge="1" parent="1" source="Ie3UJ3Y90iRiVX0req6u-195" target="Ie3UJ3Y90iRiVX0req6u-205">
          <mxGeometry width="50" height="50" relative="1" as="geometry">
            <mxPoint x="464" y="1015" as="sourcePoint" />
            <mxPoint x="680" y="1015" as="targetPoint" />
          </mxGeometry>
        </mxCell>
        <mxCell id="Ie3UJ3Y90iRiVX0req6u-205" value="A 4.1 Y" style="rounded=0;whiteSpace=wrap;html=1;" vertex="1" parent="1">
          <mxGeometry x="610" y="1005" width="50" height="20" as="geometry" />
        </mxCell>
        <mxCell id="Ie3UJ3Y90iRiVX0req6u-208" value="" style="endArrow=none;html=1;rounded=0;" edge="1" parent="1" source="Ie3UJ3Y90iRiVX0req6u-181" target="Ie3UJ3Y90iRiVX0req6u-207">
          <mxGeometry width="50" height="50" relative="1" as="geometry">
            <mxPoint x="524" y="1045" as="sourcePoint" />
            <mxPoint x="680" y="1045" as="targetPoint" />
          </mxGeometry>
        </mxCell>
        <mxCell id="Ie3UJ3Y90iRiVX0req6u-207" value="A 4.1 Y" style="rounded=0;whiteSpace=wrap;html=1;" vertex="1" parent="1">
          <mxGeometry x="610" y="1035" width="50" height="20" as="geometry" />
        </mxCell>
        <mxCell id="Ie3UJ3Y90iRiVX0req6u-203" value="P 5.5" style="rounded=0;whiteSpace=wrap;html=1;" vertex="1" parent="1">
          <mxGeometry x="540" y="1035" width="50" height="20" as="geometry" />
        </mxCell>
        <mxCell id="Ie3UJ3Y90iRiVX0req6u-210" value="" style="endArrow=none;html=1;rounded=0;" edge="1" parent="1" source="Ie3UJ3Y90iRiVX0req6u-199" target="Ie3UJ3Y90iRiVX0req6u-209">
          <mxGeometry width="50" height="50" relative="1" as="geometry">
            <mxPoint x="524" y="1075" as="sourcePoint" />
            <mxPoint x="680" y="1075" as="targetPoint" />
          </mxGeometry>
        </mxCell>
        <mxCell id="Ie3UJ3Y90iRiVX0req6u-209" value="P 5.5" style="rounded=0;whiteSpace=wrap;html=1;" vertex="1" parent="1">
          <mxGeometry x="540" y="1065" width="50" height="20" as="geometry" />
        </mxCell>
        <mxCell id="Ie3UJ3Y90iRiVX0req6u-211" value="P 5.5" style="rounded=0;whiteSpace=wrap;html=1;" vertex="1" parent="1">
          <mxGeometry x="540" y="1095" width="50" height="20" as="geometry" />
        </mxCell>
        <mxCell id="Ie3UJ3Y90iRiVX0req6u-212" value="" style="group" vertex="1" connectable="0" parent="1">
          <mxGeometry x="490" y="1036" width="20" height="20" as="geometry" />
        </mxCell>
        <mxCell id="Ie3UJ3Y90iRiVX0req6u-213" value="" style="endArrow=none;html=1;rounded=0;" edge="1" parent="Ie3UJ3Y90iRiVX0req6u-212">
          <mxGeometry width="50" height="50" relative="1" as="geometry">
            <mxPoint y="20" as="sourcePoint" />
            <mxPoint x="20" as="targetPoint" />
          </mxGeometry>
        </mxCell>
        <mxCell id="Ie3UJ3Y90iRiVX0req6u-214" value="" style="endArrow=none;html=1;rounded=0;" edge="1" parent="Ie3UJ3Y90iRiVX0req6u-212">
          <mxGeometry width="50" height="50" relative="1" as="geometry">
            <mxPoint x="20" y="20" as="sourcePoint" />
            <mxPoint as="targetPoint" />
          </mxGeometry>
        </mxCell>
        <mxCell id="Ie3UJ3Y90iRiVX0req6u-215" value="" style="group" vertex="1" connectable="0" parent="1">
          <mxGeometry x="625" y="1034" width="20" height="20" as="geometry" />
        </mxCell>
        <mxCell id="Ie3UJ3Y90iRiVX0req6u-216" value="" style="endArrow=none;html=1;rounded=0;" edge="1" parent="Ie3UJ3Y90iRiVX0req6u-215">
          <mxGeometry width="50" height="50" relative="1" as="geometry">
            <mxPoint y="20" as="sourcePoint" />
            <mxPoint x="20" as="targetPoint" />
          </mxGeometry>
        </mxCell>
        <mxCell id="Ie3UJ3Y90iRiVX0req6u-217" value="" style="endArrow=none;html=1;rounded=0;" edge="1" parent="Ie3UJ3Y90iRiVX0req6u-215">
          <mxGeometry width="50" height="50" relative="1" as="geometry">
            <mxPoint x="20" y="20" as="sourcePoint" />
            <mxPoint as="targetPoint" />
          </mxGeometry>
        </mxCell>
      </root>
    </mxGraphModel>
  </diagram>
</mxfile>
